HIERARCHY
ROOT Hips
{
 OFFSET 0.000000 0.000000 0.000000
 CHANNELS 6 Xposition Yposition Zposition Yrotation Xrotation Zrotation
 JOINT Chest
 {
  OFFSET 0.000000 9.585900 0.002600
  CHANNELS 3 Yrotation Xrotation Zrotation
  JOINT Chest2
  {
   OFFSET 0.000000 9.601200 -0.005300
   CHANNELS 3 Yrotation Xrotation Zrotation
   JOINT Chest3
   {
    OFFSET 0.000000 9.561800 0.000000
    CHANNELS 3 Yrotation Xrotation Zrotation
    JOINT Chest4
    {
     OFFSET 0.000000 9.552100 0.000000
     CHANNELS 3 Yrotation Xrotation Zrotation
     JOINT Neck
     {
      OFFSET 0.000000 14.453000 0.000000
      CHANNELS 3 Yrotation Xrotation Zrotation
      JOINT Head
      {
       OFFSET 0.000000 8.936500 -0.011300
       CHANNELS 3 Yrotation Xrotation Zrotation
       End Site
       {
        OFFSET 0.000000 17.073600 -0.006000
       }
      }
     }
     JOINT RightCollar
     {
      OFFSET -2.921100 9.558500 0.000000
      CHANNELS 3 Yrotation Xrotation Zrotation
      JOINT RightShoulder
      {
       OFFSET -13.519700 0.000000 0.000000
       CHANNELS 3 Yrotation Xrotation Zrotation
       JOINT RightElbow
       {
        OFFSET 0.000000 -29.696600 0.000000
        CHANNELS 3 Yrotation Xrotation Zrotation
        JOINT RightWrist
        {
         OFFSET 0.000000 -24.004700 0.000000
         CHANNELS 3 Yrotation Xrotation Zrotation
         End Site
         {
          OFFSET 0.000000 -17.728500 0.000000
         }
        }
       }
      }
     }
     JOINT LeftCollar
     {
      OFFSET 2.921100 9.558500 0.000000
      CHANNELS 3 Yrotation Xrotation Zrotation
      JOINT LeftShoulder
      {
       OFFSET 13.519700 0.000000 0.000000
       CHANNELS 3 Yrotation Xrotation Zrotation
       JOINT LeftElbow
       {
        OFFSET 0.000000 -29.696600 0.000000
        CHANNELS 3 Yrotation Xrotation Zrotation
        JOINT LeftWrist
        {
         OFFSET 0.000000 -24.004700 0.000000
         CHANNELS 3 Yrotation Xrotation Zrotation
         End Site
         {
          OFFSET 0.000000 -17.728500 0.000000
         }
        }
       }
      }
     }
    }
   }
  }
 }
 JOINT RightHip
 {
  OFFSET -7.771700 -0.012900 -0.001300
  CHANNELS 3 Yrotation Xrotation Zrotation
  JOINT RightKnee
  {
   OFFSET 0.000000 -40.869800 0.001200
   CHANNELS 3 Yrotation Xrotation Zrotation
   JOINT RightAnkle
   {
    OFFSET 0.000000 -39.717900 0.002100
    CHANNELS 3 Yrotation Xrotation Zrotation
    JOINT RightToe
    {
     OFFSET 0.000000 -4.965400 11.033500
     CHANNELS 3 Yrotation Xrotation Zrotation
     End Site
     {
      OFFSET 0.000000 -1.423100 5.872300
     }
    }
   }
  }
 }
 JOINT LeftHip
 {
  OFFSET 7.771700 -0.012900 -0.001300
  CHANNELS 3 Yrotation Xrotation Zrotation
  JOINT LeftKnee
  {
   OFFSET 0.000000 -40.869800 0.001200
   CHANNELS 3 Yrotation Xrotation Zrotation
   JOINT LeftAnkle
   {
    OFFSET 0.000000 -39.717900 0.002100
    CHANNELS 3 Yrotation Xrotation Zrotation
    JOINT LeftToe
    {
     OFFSET 0.000000 -4.965400 11.033500
     CHANNELS 3 Yrotation Xrotation Zrotation
     End Site
     {
      OFFSET 0.000000 -1.423100 5.872300
     }
    }
   }
  }
 }
}
MOTION
Frames: 7
Frame Time: 0.008333
0.000000 85.388000 0.000000 0.000000 -5.767877 0.000000 0.000000 11.653817 0.000000 0.000000 -5.885947 0.000000 0.000000 -0.000000 0.000000 0.000000 -0.000000 0.000000 0.000000 12.528835 0.000000 0.000000 0.711642 0.000000 0.000000 -0.000000 0.000000 0.000000 0.000000 -90.000000 0.000000 -2.309062 0.000000 0.000000 2.309062 0.000000 0.000000 -0.000000 0.000000 0.000000 -0.000000 90.000000 0.000000 -2.309062 0.000000 0.000000 2.309062 0.000000 0.000000 8.520406 0.000000 0.000000 1.905762 0.000000 -0.000000 -4.658285 0.000000 0.000000 -0.000000 0.000000 0.000000 8.520406 0.000000 0.000000 1.905762 0.000000 -0.000000 -4.658285 0.000000 0.000000 -0.000000 0.000000
-9.021232 52.925643 15.453788 -179.714357 -15.194313 -2.366589 0.955842 14.960630 0.675297 0.080652 1.363636 0.061404 0.135029 2.302894 0.100958 0.859942 13.368445 0.681863 -0.649197 19.621155 -0.374627 -0.638546 -4.981007 -0.229860 -0.043294 -0.330515 2.423317 0.046105 -7.623530 -5.343732 -83.653593 -69.625756 114.951979 -9.921006 -7.794626 -11.818188 -6.225073 -1.513970 2.242529 3.251423 -5.310433 8.708354 73.165067 -58.782977 -111.714878 3.548597 -9.249459 8.450104 1.724561 -63.125066 11.524733 171.288718 86.029527 170.045140 -12.001860 -22.299989 13.300717 0.010076 -0.017194 0.008440 3.888506 -61.800540 -2.451762 121.696627 77.502275 120.451836 -5.557509 -20.220266 -1.794207 0.022876 0.130372 0.005205
-9.021367 52.925500 15.453539 -179.709061 -15.192892 -2.369265 0.952561 14.955699 0.679740 0.079713 1.365210 0.059988 0.135103 2.299962 0.102160 0.857154 13.366278 0.681039 -0.666686 19.624222 -0.371359 -0.649738 -4.986289 -0.222161 -0.036177 -0.319235 2.423774 0.018861 -7.624817 -5.345650 -83.654984 -69.630857 114.960959 -9.916266 -7.817008 -11.853489 -6.220212 -1.504254 2.236859 3.261115 -5.303010 8.699634 73.150539 -58.790464 -111.690863 3.545719 -9.258359 8.470733 1.720158 -63.124636 11.512905 171.024294 86.024792 169.767869 -11.924266 -22.305395 13.290837 0.014628 -0.024704 0.004981 3.889256 -61.803630 -2.454696 121.695472 77.500590 120.453940 -5.558702 -20.219753 -1.794214 0.021280 0.130716 0.006575
-9.021083 52.925214 15.453953 -179.711484 -15.188379 -2.373496 0.956350 14.951226 0.685481 0.080275 1.365086 0.059884 0.146806 2.299882 0.098224 0.860909 13.366166 0.680120 -0.689959 19.619126 -0.356742 -0.657099 -4.998343 -0.213464 -0.049134 -0.313123 2.434454 0.015554 -7.630443 -5.347943 -83.661662 -69.633335 114.955431 -9.918521 -7.846482 -11.866591 -6.231084 -1.500364 2.241702 3.284709 -5.280796 8.688978 73.162036 -58.808355 -111.725551 3.548062 -9.263852 8.505267 1.718558 -63.127614 11.495292 170.618817 86.018773 169.334920 -11.765263 -22.314352 13.271351 0.022581 -0.035290 0.001199 3.887758 -61.811476 -2.447984 121.699663 77.499891 120.460350 -5.557928 -20.217550 -1.794346 0.024471 0.128722 0.007360
-9.023207 52.924901 15.454435 -179.697478 -15.183721 -2.369039 0.951853 14.946971 0.676980 0.087186 1.364606 0.057529 0.138065 2.300450 0.100678 0.864598 13.367043 0.676331 -0.699049 19.599925 -0.341600 -0.665429 -5.002122 -0.201145 -0.068089 -0.309658 2.448443 0.017570 -7.634763 -5.356789 -83.660672 -69.625952 114.948744 -9.925394 -7.880561 -11.881166 -6.236556 -1.492168 2.250890 3.288297 -5.278460 8.681345 73.136791 -58.819366 -111.683888 3.551511 -9.284276 8.545256 1.727946 -63.135224 11.512388 171.337216 86.029909 170.090254 -12.046643 -22.291454 13.318636 0.009382 -0.016840 0.014330 3.892579 -61.817174 -2.468912 121.656828 77.493690 120.420644 -5.569337 -20.209864 -1.795736 0.027057 0.126498 0.009145
-9.027189 52.924875 15.454003 -179.691870 -15.186125 -2.352949 0.950856 14.948618 0.658775 0.084252 1.365189 0.058285 0.136115 2.301017 0.101065 0.864235 13.367087 0.675859 -0.698788 19.591506 -0.335491 -0.671360 -5.012171 -0.191404 -0.068643 -0.293467 2.454022 0.012311 -7.647274 -5.361338 -83.678688 -69.616418 114.959319 -9.927432 -7.891403 -11.883773 -6.236688 -1.485086 2.251109 3.289544 -5.280377 8.679529 73.119861 -58.826050 -111.646577 3.556424 -9.298407 8.619836 1.754964 -63.141344 11.568396 172.697722 86.053231 171.540500 -12.691153 -22.240019 13.410990 -0.021316 0.019157 0.035772 3.920558 -61.813346 -2.507508 121.651306 77.494417 120.414847 -5.571785 -20.206513 -1.793903 0.033284 0.123011 0.009871
-9.028942 52.924893 15.454179 -179.692839 -15.186159 -2.350178 0.955166 14.949027 0.655620 0.085687 1.364045 0.058429 0.133489 2.302054 0.101698 0.871966 13.367529 0.675045 -0.699936 19.578564 -0.325152 -0.671643 -5.026818 -0.180433 -0.077330 -0.287727 2.458078 -0.001137 -7.648329 -5.347981 -83.691774 -69.619493 114.976256 -9.930983 -7.900068 -11.887909 -6.245701 -1.480970 2.253656 3.291485 -5.279997 8.677614 73.111558 -58.827358 -111.611192 3.558112 -9.304700 8.619868 1.760590 -63.142323 11.573299 172.984006 86.058665 171.839783 -12.714825 -22.235253 13.403259 -0.023701 0.011822 0.031403 3.931315 -61.812028 -2.517701 121.647481 77.498201 120.412388 -5.568332 -20.209313 -1.791143 0.033238 0.125250 0.008725
